PathFileType	4	(X/Y/Z)	/Users/niels/Desktop/University/Third Semester/Perception and Action/Exam/Gymnastics Motion Tracking/Code for Gym Tracking/Analyzed Data/Webcam_Backflip/id7_1_trajectory_Sports2D/id7_1_trajectory_Sports2D_px_person00.trc
DataRate	CameraRate	NumFrames	NumMarkers	Units	OrigDataRate	OrigDataStartFrame	OrigNumFrames
29.81132075471698	29.81132075471698	12	22	m	29.81132075471698	19	159
Frame#	Time	Hip			RHip			RKnee			RAnkle			RBigToe			RSmallToe			RHeel			LHip			LKnee			LAnkle			LBigToe			LSmallToe			LHeel			Neck			Head			Nose			RShoulder			RElbow			RWrist			LShoulder			LElbow			LWrist		
		X1	Y1	Z1	X2	Y2	Z2	X3	Y3	Z3	X4	Y4	Z4	X5	Y5	Z5	X6	Y6	Z6	X7	Y7	Z7	X8	Y8	Z8	X9	Y9	Z9	X10	Y10	Z10	X11	Y11	Z11	X12	Y12	Z12	X13	Y13	Z13	X14	Y14	Z14	X15	Y15	Z15	X16	Y16	Z16	X17	Y17	Z17	X18	Y18	Z18	X19	Y19	Z19	X20	Y20	Z20	X21	Y21	Z21	X22	Y22	Z22
19	0.6373417721518987	1.0029427763174998	-0.28939285358197636	0.0	1.0019259382582557	-0.28620988567061206	0.0	0.9034258710001782	-0.3062810283279126	0.0	0.9355526009489683	-0.22841230110044877	0.0	0.8956174575819823	-0.2130225796483478	0.0	0.9042326446821559	-0.2104973273020048	0.0	0.9410202659919611	-0.2160734269933347	0.0	0.9979668692569078	-0.2959716323508774	0.0	0.9022158229176913	-0.31719941087705406	0.0	0.9362139552768435	-0.22910015472761344	0.0	0.9076334368902048	-0.20895754250539478	0.0	0.9096461135208822	-0.21554653168617074	0.0	0.947772857278713	-0.21376579563170436	0.0	0.9753682840747667	-0.42162843813763795	0.0	0.9606326713437587	-0.48357120192461955	0.0	0.9462940126640628	-0.45144032828096353	0.0	0.9788033257907216	-0.395586562669677	0.0	0.9593581595300474	-0.3294859291577144	0.0	0.9239205126386512	-0.3052911157722572	0.0	0.9830886194942335	-0.41422110885747915	0.0	0.9722749413438642	-0.35359431380805034	0.0	0.9769203063998335	-0.33154638462895064	0.0
20	0.6708860759493671	0.9917324346150502	-0.28062801685736566	0.0	0.9890432406794821	-0.2789271509020879	0.0	0.8995178563249594	-0.33038375174870266	0.0	0.8962646792986297	-0.24916565067258556	0.0	0.8534837545431229	-0.2515639683634405	0.0	0.8595729921281229	-0.24677489550382936	0.0	0.8978254534563539	-0.23202413438561736	0.0	0.9892615463155553	-0.28766027832067864	0.0	0.9018163483944275	-0.33744764887842643	0.0	0.8994548493723532	-0.24880815914304552	0.0	0.8653370424402698	-0.2446139952066031	0.0	0.8687710769639125	-0.2515585731588044	0.0	0.9069892443826933	-0.2287222359485961	0.0	1.0045719348426139	-0.41988843556251754	0.0	1.0045571958035184	-0.48496596285901217	0.0	0.9832486058776465	-0.4573748631294927	0.0	1.0022378115747954	-0.3956615940944461	0.0	0.9647673065875283	-0.33801613711542655	0.0	0.9190154204432239	-0.3284876436483774	0.0	1.0096654444712432	-0.4107011334418588	0.0	0.9916200271227973	-0.35866046765754095	0.0	1.0031771093203232	-0.34783635021295073	0.0
21	0.7044303797468354	0.9790671843359863	-0.2796101373783774	0.0	0.9749912819656272	-0.27939721021342867	0.0	0.9011760059979008	-0.3562075181387555	0.0	0.8633310075248123	-0.28553681753492177	0.0	0.8243746175399149	-0.30616230614910905	0.0	0.8271310555703516	-0.2996084985077998	0.0	0.8604183003404468	-0.2661937463145732	0.0	0.9791072690787345	-0.28665073291816884	0.0	0.9055354767839728	-0.3602708731302746	0.0	0.8687002403663185	-0.2846342554738198	0.0	0.8337469231292293	-0.2981854154572772	0.0	0.8384909822791272	-0.30383748293227864	0.0	0.8707976569445766	-0.2626698687446417	0.0	1.030684006478715	-0.41310231607875436	0.0	1.044734983481992	-0.47699601624389065	0.0	1.0188288772725445	-0.45486438922536354	0.0	1.02405302166114	-0.39228446092112296	0.0	0.9725180299810138	-0.34836259989478174	0.0	0.9219150232186195	-0.35539955077773033	0.0	1.033319971779984	-0.4028219935730193	0.0	1.0141225486584602	-0.3645571726422445	0.0	1.0344876838998354	-0.36558055416539437	0.0
22	0.7379746835443037	0.9664481184115341	-0.2868541183215605	0.0	0.9614262614800246	-0.28771334290321415	0.0	0.9063235072453132	-0.3826945574613911	0.0	0.8407121187088638	-0.33504185650940677	0.0	0.8114663771011318	-0.3712755775470895	0.0	0.8105914710947983	-0.36379832741280765	0.0	0.8333590947908155	-0.31676908712062307	0.0	0.9683306711556954	-0.2935465915247403	0.0	0.9112347593693565	-0.3852084725073892	0.0	0.8476508044241553	-0.3341446629130696	0.0	0.8177755337744154	-0.36384133623318177	0.0	0.8230847359010577	-0.3667071876207312	0.0	0.8434352430918487	-0.31371693666624073	0.0	1.0512244888859532	-0.40298801303250525	0.0	1.0784569174841168	-0.4624019623190398	0.0	1.0493404736018672	-0.445724243012629	0.0	1.0422463006196316	-0.3863700818208884	0.0	0.982532565936475	-0.359925368222746	0.0	0.9332463803337009	-0.3837664852530249	0.0	1.0515123382666598	-0.3920680151272367	0.0	1.0356891009903793	-0.37049068911662814	0.0	1.0624887815488462	-0.38310819273648355	0.0
23	0.7715189873417722	0.9549578217417313	-0.30224434226492625	0.0	0.9496666392410349	-0.3035217101974115	0.0	0.9127477614413333	-0.41000872360940815	0.0	0.8307311820634213	-0.3940174996002907	0.0	0.8153158136293582	-0.44068255329962097	0.0	0.8111217730653291	-0.43337699811499525	0.0	0.8196327854921487	-0.37986016248732934	0.0	0.9577621287223725	-0.30817158716127774	0.0	0.9171549342332979	-0.41208705935053164	0.0	0.8382925253786085	-0.3931116862267958	0.0	0.8192621477616754	-0.43452656821334856	0.0	0.8240482489541289	-0.4341851752570138	0.0	0.8279228267705964	-0.37741726531061237	0.0	1.0646218154878333	-0.39176589168864734	0.0	1.104055959952957	-0.4442152002270454	0.0	1.0722079449729447	-0.43282811833892343	0.0	1.0551461928875019	-0.3792532752868103	0.0	0.9948779328276558	-0.37185464870918616	0.0	0.9530352247803856	-0.4107808206713539	0.0	1.06244228746075	-0.3805230065526646	0.0	1.049851304389038	-0.376033513549281	0.0	1.0773353329502473	-0.4000293255231933	0.0
24	0.8050632911392405	0.9452518241475917	-0.32515850508005884	0.0	0.9405484995293056	-0.32627968110791	0.0	0.9188919341460516	-0.4391433675049107	0.0	0.8337502654975926	-0.45815366422812587	0.0	0.8338771109941276	-0.5089482590510052	0.0	0.8271341182265284	-0.502883327897058	0.0	0.8202137730689824	-0.45014122296014125	0.0	0.9481458853265479	-0.32982860368090294	0.0	0.9222290680078681	-0.44103447008107505	0.0	0.8408295022076733	-0.4567320204531414	0.0	0.8364759625978543	-0.5040847151145526	0.0	0.839781080370476	-0.5011632441004649	0.0	0.825643384754008	-0.44797832166460344	0.0	1.0704808192611202	-0.38175443246005325	0.0	1.1208719048752056	-0.4251135687790115	0.0	1.0865056239772881	-0.4193358000950568	0.0	1.0618690841886305	-0.37268527308328936	0.0	1.009404532882379	-0.38335174314460985	0.0	0.9807117085771503	-0.4337033037501152	0.0	1.0655226111480371	-0.3704757820152309	0.0	1.051628171975578	-0.3821791123820163	0.0	1.0749803268573956	-0.4172508666712775	0.0
25	0.8386075949367088	0.9378276507219665	-0.3547903128084929	0.0	0.9344280382574095	-0.3554294780070818	0.0	0.9243438128137967	-0.47130353543888936	0.0	0.8481934694856864	-0.5232804183001478	0.0	0.8630543553616501	-0.5724962785555603	0.0	0.8547005407720261	-0.5684196669350509	0.0	0.8338241500277787	-0.5221273078726072	0.0	0.9402472187165104	-0.3578818595149582	0.0	0.9263780302072802	-0.47269564016162147	0.0	0.8538623053519228	-0.5208717804228598	0.0	0.8649050191572967	-0.5685261477626948	0.0	0.8660837016977493	-0.5641716622590162	0.0	0.8360589743324938	-0.5198606839081718	0.0	1.0694594307496836	-0.37521036715393224	0.0	1.1289444705282607	-0.40740715684996837	0.0	1.0927003014148755	-0.40803845247646325	0.0	1.0623871907532507	-0.3687477991325232	0.0	1.0251664844657518	-0.3939265304283916	0.0	1.0142243730678628	-0.4501268306095179	0.0	1.0614303650875099	-0.3642495476020178	0.0	1.0423295834266446	-0.3901954068526633	0.0	1.0609754421127384	-0.4343718923152638	0.0
26	0.8721518987341772	0.9331041376997163	-0.3902734233314331	0.0	0.931309319307397	-0.3903290525927288	0.0	0.9297220185099231	-0.5072343852548311	0.0	0.8708207049946307	-0.5861796862408633	0.0	0.8975447677003414	-0.6298360946972344	0.0	0.88846309864456	-0.6280908560278351	0.0	0.8570477709312319	-0.5914291599781808	0.0	0.934800616919316	-0.391817947446987	0.0	0.9303929552634935	-0.5078426422389692	0.0	0.8744957747954556	-0.5826096461042205	0.0	0.8986159689844166	-0.6262099158787134	0.0	0.8973206792482374	-0.6215777293402477	0.0	0.8564667492524326	-0.5887765201231786	0.0	1.062775181400213	-0.3740996267317475	0.0	1.1286643244844141	-0.393225403809617	0.0	1.091878530933101	-0.4010013606478245	0.0	1.0572457189304671	-0.36957233262498623	0.0	1.0403370228845124	-0.4035529308664591	0.0	1.049566864856641	-0.4584285687592112	0.0	1.0516482003019973	-0.3639278825775385	0.0	1.0286656992328675	-0.4000242463290993	0.0	1.0453890166329736	-0.44822103773734806	0.0
27	0.9056962025316455	0.9311969922311568	-0.43055589330304334	0.0	0.9309803781570424	-0.4300982611630441	0.0	0.9360614457398152	-0.5468959150205577	0.0	0.8972591580793189	-0.644923359168026	0.0	0.931822301199019	-0.681101269806487	0.0	0.9227511095729726	-0.6816690309059855	0.0	0.8849470900342132	-0.6552750954513804	0.0	0.932095933012681	-0.4308476108190011	0.0	0.935226937785164	-0.5466980652813198	0.0	0.8985937164310833	-0.6402599240344141	0.0	0.9316905730589424	-0.6773223841377982	0.0	0.9277855517873149	-0.6731916713405593	0.0	0.8821376694151757	-0.6519932206856834	0.0	1.0516866941248928	-0.37977629053678635	0.0	1.120652341686895	-0.3844145602281967	0.0	1.0851053508338862	-0.39947654980967573	0.0	1.0473503030718834	-0.37690586872006454	0.0	1.0527867706719016	-0.4126032494739416	0.0	1.0814422273478241	-0.4584039724002775	0.0	1.037784398916771	-0.3709826801723623	0.0	1.0168108068549209	-0.4105300841065386	0.0	1.0342281740782018	-0.4551169245693257	0.0
28	0.9392405063291138	0.9317744191062705	-0.4742222018400112	0.0	0.9330292932036638	-0.47346810365870473	0.0	0.9440833286799458	-0.5894135210130897	0.0	0.9228321172862053	-0.6986328846967382	0.0	0.9612321586301206	-0.7271996413689631	0.0	0.9526951253471292	-0.7297445159297228	0.0	0.9121325879777318	-0.7122962601187834	0.0	0.9317527995264386	-0.4736356183128152	0.0	0.9412791581366743	-0.5885656828100408	0.0	0.9215243184063225	-0.6930322842163816	0.0	0.9593813992840289	-0.722825470029631	0.0	0.9528164970743684	-0.719400173745987	0.0	0.9073260692594546	-0.7081504298541397	0.0	1.037318571567582	-0.3927015381769946	0.0	1.1057711972447106	-0.38218384382158904	0.0	1.0733362294653193	-0.40397475201903776	0.0	1.0339064924787027	-0.39166436704953755	0.0	1.0606600968347735	-0.42167477610751464	0.0	1.1045852908305958	-0.4515838640438308	0.0	1.0212289019737772	-0.38597698413678955	0.0	1.0085211615302088	-0.4206576709471801	0.0	1.0265211921398154	-0.4535717645912814	0.0
29	0.9727848101265822	0.9341150311649543	-0.519268078670885	0.0	0.9367797555760163	-0.5185415537779976	0.0	0.9536787944678983	-0.6330438650996478	0.0	0.9436750586839716	-0.7467760775442831	0.0	0.982990530697597	-0.7687548615667402	0.0	0.9752129375544654	-0.7727155196393356	0.0	0.9341517898758313	-0.7618000189292866	0.0	0.9329083014580187	-0.5181677637742783	0.0	0.948099890410399	-0.6317585208832431	0.0	0.9393644478244453	-0.7404019123621162	0.0	0.9790093813385466	-0.763354216012757	0.0	0.9696997501964086	-0.7602686683165188	0.0	0.9270613775182631	-0.7566514039938451	0.0	1.0208019844228284	-0.4122544486976911	0.0	1.0852438198658698	-0.38683834884379426	0.0	1.05772782341508	-0.4143061322425709	0.0	1.0183198617452804	-0.4135061968136622	0.0	1.062593470069753	-0.43137921820849484	0.0	1.1151778348610875	-0.4409823835589731	0.0	1.0032440204954478	-0.40832133608505944	0.0	1.0016680563389273	-0.43031115018667965	0.0	1.0178582484505687	-0.44527363562533295	0.0
30	1.0063291139240507	0.9372215240024381	-0.5629148885443599	0.0	0.9412426046165008	-0.5625744324865504	0.0	0.9637955009135942	-0.6751839232459076	0.0	0.9577476571409145	-0.7884290349287202	0.0	0.9964868849280587	-0.8053676435454132	0.0	0.9894174824615426	-0.8101193638025546	0.0	0.948685426529227	-0.8030337915508075	0.0	0.9345167473626731	-0.5616299405024933	0.0	0.954553853942287	-0.6736874575315774	0.0	0.9500559119902856	-0.7815424558181714	0.0	0.9902975160131549	-0.7986865106535778	0.0	0.9781377315408817	-0.7951841422123194	0.0	0.9388017730049626	-0.7969730144579642	0.0	1.003397575045592	-0.43663859655142506	0.0	1.060898689373808	-0.39762028211671585	0.0	1.0398529080984447	-0.42948371292988013	0.0	1.0019774438642266	-0.4405137074761606	0.0	1.0579435934565289	-0.4420032099470088	0.0	1.112036778385931	-0.4301894726075238	0.0	0.9851152110252928	-0.4360715838749919	0.0	0.9929363562380435	-0.4406783660562226	0.0	1.0050661828467693	-0.4349678823438444	0.0
